<svg width="30" height="30" viewBox="0 0 30 30" fill="none" xmlns="http://www.w3.org/2000/svg">
  <path
    d="M16.285 2.50006C17.6912 2.50381 18.405 2.51131 19.0212 2.52881L19.2638 2.53756C19.5438 2.54756 19.82 2.56006 20.1537 2.57506C21.4837 2.63756 22.3913 2.84756 23.1875 3.15631C24.0125 3.47381 24.7075 3.90381 25.4025 4.59756C26.0381 5.22243 26.5299 5.9783 26.8438 6.81256C27.1525 7.60881 27.3625 8.51631 27.425 9.84756C27.44 10.1801 27.4525 10.4563 27.4625 10.7376L27.47 10.9801C27.4888 11.5951 27.4963 12.3088 27.4988 13.7151L27.5 14.6476V16.2851C27.5031 17.1968 27.4935 18.1086 27.4713 19.0201L27.4638 19.2626C27.4538 19.5438 27.4413 19.8201 27.4263 20.1526C27.3638 21.4838 27.1513 22.3901 26.8438 23.1876C26.5308 24.0223 26.0389 24.7783 25.4025 25.4026C24.7775 26.038 24.0216 26.5298 23.1875 26.8438C22.3913 27.1526 21.4837 27.3626 20.1537 27.4251C19.8571 27.439 19.5605 27.4515 19.2638 27.4626L19.0212 27.4701C18.405 27.4876 17.6912 27.4963 16.285 27.4988L15.3525 27.5001H13.7162C12.8041 27.5032 11.8919 27.4936 10.98 27.4713L10.7375 27.4638C10.4408 27.4526 10.1441 27.4397 9.8475 27.4251C8.5175 27.3626 7.61 27.1526 6.8125 26.8438C5.97833 26.5305 5.22277 26.0386 4.59875 25.4026C3.96255 24.7779 3.47028 24.022 3.15625 23.1876C2.8475 22.3913 2.6375 21.4838 2.575 20.1526C2.56107 19.856 2.54857 19.5593 2.5375 19.2626L2.53125 19.0201C2.50821 18.1086 2.49779 17.1968 2.5 16.2851V13.7151C2.49651 12.8033 2.50568 11.8916 2.5275 10.9801L2.53625 10.7376C2.54625 10.4563 2.55875 10.1801 2.57375 9.84756C2.63625 8.51631 2.84625 7.61006 3.155 6.81256C3.46889 5.97744 3.96215 5.22134 4.6 4.59756C5.22386 3.9619 5.97893 3.47004 6.8125 3.15631C7.61 2.84756 8.51625 2.63756 9.8475 2.57506C10.18 2.56006 10.4575 2.54756 10.7375 2.53756L10.98 2.53006C11.8915 2.50785 12.8032 2.49827 13.715 2.50131L16.285 2.50006ZM15 8.75006C13.3424 8.75006 11.7527 9.40854 10.5806 10.5806C9.40848 11.7527 8.75 13.3425 8.75 15.0001C8.75 16.6577 9.40848 18.2474 10.5806 19.4195C11.7527 20.5916 13.3424 21.2501 15 21.2501C16.6576 21.2501 18.2473 20.5916 19.4194 19.4195C20.5915 18.2474 21.25 16.6577 21.25 15.0001C21.25 13.3425 20.5915 11.7527 19.4194 10.5806C18.2473 9.40854 16.6576 8.75006 15 8.75006ZM15 11.2501C15.4925 11.25 15.9801 11.3469 16.4351 11.5353C16.8901 11.7237 17.3036 11.9998 17.6518 12.348C18.0001 12.6961 18.2764 13.1095 18.4649 13.5644C18.6535 14.0194 18.7505 14.507 18.7506 14.9994C18.7507 15.4919 18.6538 15.9795 18.4654 16.4345C18.277 16.8895 18.0009 17.303 17.6527 17.6513C17.3046 17.9995 16.8912 18.2758 16.4363 18.4644C15.9813 18.6529 15.4937 18.75 15.0012 18.7501C14.0067 18.7501 13.0529 18.355 12.3496 17.6517C11.6463 16.9484 11.2512 15.9946 11.2512 15.0001C11.2512 14.0055 11.6463 13.0517 12.3496 12.3484C13.0529 11.6451 14.0067 11.2501 15.0012 11.2501M21.5637 6.87506C21.1493 6.87506 20.7519 7.03968 20.4589 7.33271C20.1659 7.62573 20.0012 8.02316 20.0012 8.43756C20.0012 8.85196 20.1659 9.24939 20.4589 9.54241C20.7519 9.83544 21.1493 10.0001 21.5637 10.0001C21.9781 10.0001 22.3756 9.83544 22.6686 9.54241C22.9616 9.24939 23.1263 8.85196 23.1263 8.43756C23.1263 8.02316 22.9616 7.62573 22.6686 7.33271C22.3756 7.03968 21.9781 6.87506 21.5637 6.87506Z"
    fill="#565656" />
</svg>