<svg width="30" height="30" viewBox="0 0 30 30" fill="none" xmlns="http://www.w3.org/2000/svg">
<path d="M15 2.50006C8.1 2.50006 2.5 8.10006 2.5 15.0001C2.5 21.9001 8.1 27.5001 15 27.5001C21.9 27.5001 27.5 21.9001 27.5 15.0001C27.5 8.10006 21.9 2.50006 15 2.50006ZM20.8 11.0001C20.6125 12.9751 19.8 17.7751 19.3875 19.9876C19.2125 20.9251 18.8625 21.2376 18.5375 21.2751C17.8125 21.3376 17.2625 20.8001 16.5625 20.3376C15.4625 19.6126 14.8375 19.1626 13.775 18.4626C12.5375 17.6501 13.3375 17.2001 14.05 16.4751C14.2375 16.2876 17.4375 13.3751 17.5 13.1126C17.5087 13.0728 17.5075 13.0315 17.4966 12.9923C17.4857 12.9531 17.4654 12.9171 17.4375 12.8876C17.3625 12.8251 17.2625 12.8501 17.175 12.8626C17.0625 12.8876 15.3125 14.0501 11.9 16.3501C11.4 16.6876 10.95 16.8626 10.55 16.8501C10.1 16.8376 9.25 16.6001 8.6125 16.3876C7.825 16.1376 7.2125 16.0001 7.2625 15.5626C7.2875 15.3376 7.6 15.1126 8.1875 14.8751C11.8375 13.2876 14.2625 12.2376 15.475 11.7376C18.95 10.2876 19.6625 10.0376 20.1375 10.0376C20.2375 10.0376 20.475 10.0626 20.625 10.1876C20.75 10.2876 20.7875 10.4251 20.8 10.5251C20.7875 10.6001 20.8125 10.8251 20.8 11.0001Z" fill="#565656"/>
</svg>
